<?xml version="1.0" standalone="no"?>
<!DOCTYPE svg PUBLIC "-//W3C//DTD SVG 20010904//EN"
 "http://www.w3.org/TR/2001/REC-SVG-20010904/DTD/svg10.dtd">
<svg version="1.0" xmlns="http://www.w3.org/2000/svg"
 width="512.000000pt" height="512.000000pt" viewBox="0 0 512.000000 512.000000"
 preserveAspectRatio="xMidYMid meet">
<metadata>
Created by potrace 1.14, written by Peter Selinger 2001-2017
</metadata>
<g transform="translate(0.000000,512.000000) scale(0.100000,-0.100000)"
fill="#000000" stroke="none">
<path d="M4198 3085 c4 -25 4 -25 -67 -25 l-70 0 -3 -117 -3 -118 -35 -3 c-19
-1 -62 -7 -95 -13 -33 -6 -73 -13 -90 -16 -53 -7 -92 -23 -134 -54 -46 -33
-47 -33 -26 7 28 53 26 54 -125 54 -116 0 -142 -3 -146 -15 -4 -9 -19 -15 -38
-15 -34 0 -27 16 -108 -252 -13 -43 -26 -78 -29 -78 -3 0 -36 80 -72 178 l-65
177 -151 3 c-132 2 -150 1 -145 -13 4 -10 0 -15 -10 -15 -9 0 -16 -1 -16 -2 0
-2 65 -158 144 -347 112 -270 148 -346 165 -352 11 -5 21 -15 21 -24 0 -13 19
-15 142 -13 l142 3 43 105 c24 58 47 112 50 120 44 109 95 235 97 237 0 1 2
-42 2 -95 2 -146 39 -232 122 -287 20 -13 87 -41 147 -62 109 -37 112 -38 265
-38 85 0 173 3 195 8 22 4 54 10 70 13 17 3 45 11 63 17 l32 11 0 523 0 523
-139 0 -138 0 5 -25z m-140 -659 l-3 -161 -26 -3 c-104 -12 -121 274 -20 325
49 24 52 14 49 -161z"/>
<path d="M899 2806 c-2 -2 -20 -7 -39 -10 -48 -7 -139 -35 -173 -52 l-27 -15
2 -352 3 -352 125 -1 c142 0 149 1 146 24 -3 14 8 18 63 22 l66 5 0 238 0 239
47 -4 c27 -2 48 0 48 4 0 8 88 0 102 -8 4 -3 8 -2 8 3 2 21 28 108 33 108 4 0
42 -52 85 -115 l79 -115 -132 -197 -133 -198 144 0 c133 0 144 1 154 20 7 14
21 20 43 20 28 0 37 8 68 56 l36 55 49 -75 49 -75 165 0 c127 -1 161 2 152 11
-19 19 -14 28 18 28 30 0 29 1 -86 160 -68 94 -114 167 -110 175 3 8 58 92
122 187 114 169 116 173 89 176 -21 3 -24 6 -14 18 10 12 -9 14 -134 14 l-145
0 -48 -75 c-27 -41 -52 -75 -55 -75 -4 0 -24 27 -45 60 -34 52 -43 60 -70 60
-17 0 -37 7 -45 16 -11 13 -40 16 -198 15 -102 -1 -243 1 -312 4 -69 3 -128 3
-130 1z"/>
<path d="M2137 2793 c-7 -14 -1 -182 7 -190 4 -5 76 -10 161 -13 l153 -5 -164
-170 c-183 -190 -169 -162 -165 -335 l1 -50 313 0 313 0 -2 103 c-2 120 -2
122 -10 114 -4 -3 -12 0 -19 7 -9 8 -47 12 -128 11 l-116 -2 59 71 c32 39 94
113 137 164 l79 93 -1 102 0 102 -307 3 c-169 1 -308 -1 -311 -5z"/>
<path d="M1309 2006 c-1 -6 -2 -96 -3 -201 l-1 -190 175 1 c223 1 206 -2 205
34 0 27 -3 30 -32 31 -98 3 -87 -6 -93 78 -5 71 -6 76 -27 75 -13 -1 -23 3
-23 8 0 5 -8 8 -17 7 -52 -5 -58 0 -59 41 l-1 40 46 0 c70 -1 82 -15 90 -106
l6 -78 55 0 55 -1 0 55 c1 59 -15 113 -43 143 -9 11 -42 30 -72 44 -45 20 -74
25 -157 27 -70 2 -103 -1 -104 -8z"/>
<path d="M1705 2010 c-1 -3 -3 -62 -3 -132 0 -124 1 -128 22 -129 11 -1 36 -3
54 -5 l32 -2 0 79 0 80 38 -28 c20 -15 38 -28 40 -29 2 -1 5 -12 7 -25 3 -19
-6 -31 -41 -57 -32 -24 -44 -40 -44 -58 0 -24 -3 -25 -42 -24 -65 3 -66 2 -66
-33 0 -30 2 -32 37 -31 64 2 71 4 71 22 0 9 11 22 25 29 21 9 25 9 25 -3 0
-11 12 -6 43 15 75 53 88 66 90 88 0 12 5 20 9 17 4 -3 5 -10 3 -17 -6 -14
121 -111 134 -102 5 3 12 1 16 -5 12 -20 22 0 19 36 -1 21 -10 41 -18 46 -9 5
-28 19 -42 32 -23 19 -25 25 -15 44 6 12 26 32 44 44 26 19 32 30 32 60 1 33
-2 37 -19 32 -15 -5 -18 -3 -13 10 4 9 4 16 1 16 -13 0 -138 -104 -140 -117
-3 -21 -14 -29 -14 -11 0 16 -107 101 -128 101 -7 0 -23 10 -35 21 -13 12 -30
20 -40 18 -9 -2 -17 2 -17 10 0 13 -58 20 -65 8z m300 -189 c3 -5 2 -12 -3
-15 -5 -3 -9 1 -9 9 0 17 3 19 12 6z"/>
<path d="M1949 2006 c-6 -52 -5 -56 12 -56 10 0 21 -4 24 -10 3 -5 19 -10 36
-10 26 0 29 3 29 30 0 27 -8 35 -32 31 -5 0 -8 5 -8 12 0 16 -59 18 -61 3z"/>
<path d="M2214 2011 c-2 -2 -4 -17 -4 -33 0 -19 5 -28 16 -28 8 0 12 -4 9 -10
-4 -6 8 -10 29 -10 33 0 36 2 36 30 0 17 -4 30 -10 30 -5 0 -10 6 -10 13 0 12
-55 18 -66 8z"/>
<path d="M2325 2007 c-2 -7 -3 -72 -2 -144 l1 -133 40 0 41 0 0 42 c0 41 1 43
33 46 28 3 32 7 32 31 0 28 -19 53 -36 50 -29 -5 -35 3 -31 40 2 22 -2 46 -9
56 -15 21 -64 29 -69 12z"/>
<path d="M2458 1984 c-6 -49 9 -54 142 -54 120 0 121 0 118 -22 -2 -13 -31
-60 -65 -104 -35 -45 -63 -85 -63 -88 0 -3 18 -6 39 -6 37 0 43 5 100 76 l61
77 0 73 c0 41 -3 75 -7 75 -5 1 -79 2 -165 3 l-156 1 -4 -31z"/>
<path d="M2977 1994 c-41 -28 -41 -28 -27 -55 14 -25 35 -24 71 2 33 23 38 54
11 68 -14 8 -27 4 -55 -15z"/>
<path d="M3119 2004 c-6 -8 -17 -14 -25 -14 -20 0 -34 -32 -23 -53 12 -21 27
-21 67 -1 38 19 45 28 37 53 -7 24 -41 33 -56 15z"/>
<path d="M3254 2005 c-10 -8 -27 -15 -36 -15 -28 0 -41 -35 -19 -54 19 -17 51
-22 51 -7 0 5 11 11 24 13 20 4 25 0 28 -24 5 -32 1 -37 -36 -40 -14 -1 -26
-6 -26 -10 0 -4 -9 -5 -20 -3 -23 5 -22 17 -24 -165 l-1 -144 -30 -3 c-38 -3
-43 1 -86 61 -33 47 -34 51 -35 150 -1 55 -2 104 -3 108 -1 8 -44 5 -76 -6
-19 -7 -20 -15 -18 -117 l2 -110 51 -73 c40 -58 58 -75 82 -80 51 -10 228 -7
228 4 0 6 12 8 28 5 68 -15 82 -13 82 9 0 16 2 18 9 7 5 -8 22 -16 38 -18 15
-1 40 -6 56 -9 17 -4 27 -2 27 5 0 7 9 9 24 5 13 -3 27 -1 31 5 4 8 11 6 22
-5 9 -9 25 -13 37 -10 12 3 29 6 38 6 21 0 40 33 32 55 -5 12 -17 15 -54 12
-26 -2 -52 -7 -58 -11 -7 -4 -12 -3 -12 2 0 16 -170 9 -179 -7 -5 -8 -10 -9
-12 -3 -3 9 -45 18 -96 21 -8 1 -13 14 -13 31 0 29 2 30 48 30 26 0 54 1 62 1
8 0 96 -1 195 -1 99 -1 186 -1 193 -1 20 1 17 253 -4 294 -42 82 -79 100 -211
102 -65 0 -104 -3 -107 -10 -6 -17 -63 -17 -69 -1 -7 17 -59 14 -65 -3 -5 -15
-28 -14 -56 4 -20 13 -25 13 -42 0z m384 -95 c22 -15 48 -73 39 -87 -3 -5 -31
-8 -63 -8 -58 0 -58 0 -59 30 0 34 -26 51 -55 35 -10 -6 -30 -10 -44 -10 -13
0 -26 -6 -29 -12 -2 -7 -5 7 -5 32 l-1 45 97 -5 c62 -3 105 -11 120 -20z m113
-106 c2 -126 -4 -138 -11 -24 -4 58 -10 114 -14 125 -8 19 -7 18 7 -1 11 -15
17 -45 18 -100z m-186 -58 l111 3 2 -29 c1 -15 -3 -29 -10 -31 -7 -2 -62 -4
-123 -4 -62 0 -113 -4 -118 -10 -4 -5 -6 11 -5 37 2 37 6 45 18 38 8 -4 65 -6
125 -4z"/>
<path d="M2850 2000 c0 -5 -7 -10 -15 -10 -22 0 -19 -47 3 -59 14 -7 25 -6 39
4 11 8 23 11 27 8 3 -3 6 10 6 30 0 34 -2 37 -30 37 -16 0 -30 -4 -30 -10z"/>
<path d="M2519 1826 c-32 -39 -59 -80 -60 -91 0 -11 -1 -46 -2 -78 l-2 -57
167 0 166 0 -1 33 -2 32 -95 2 c-52 1 -110 2 -127 2 -53 1 -44 38 32 132 36
45 63 85 60 90 -3 4 -22 8 -42 7 -31 -1 -42 -10 -94 -72z"/>
<path d="M2845 1870 c-3 -5 -10 -8 -14 -6 -4 3 -8 -80 -8 -184 -1 -215 -9
-200 97 -200 l56 0 1 35 c1 35 -9 42 -54 36 -9 -1 -13 40 -15 161 l-3 163 -27
3 c-14 2 -29 -2 -33 -8z"/>
<path d="M3110 1870 c0 -6 -3 -9 -7 -9 -26 4 -34 -3 -31 -28 3 -29 26 -37 74
-24 24 6 29 13 29 36 0 26 -4 30 -32 32 -18 2 -33 -2 -33 -7z"/>
<path d="M2215 1807 c-16 -21 -15 -34 5 -52 10 -9 30 -15 47 -13 22 2 29 9 31
30 3 22 -2 30 -23 38 -34 13 -48 12 -60 -3z"/>
<path d="M3098 1742 c-23 -3 -28 -8 -28 -32 0 -33 9 -38 64 -30 40 5 44 10 37
58 -1 8 -25 9 -73 4z"/>
<path d="M1885 1647 c-38 -28 -72 -61 -75 -72 -3 -11 -13 -21 -22 -21 -10 -1
-34 -2 -53 -3 -29 -1 -35 -5 -35 -23 0 -37 12 -46 57 -43 31 2 49 11 68 32 18
19 28 24 32 15 3 -9 13 -6 36 10 41 29 65 48 89 71 11 10 22 16 26 13 3 -3 2
-6 -3 -6 -4 0 21 -22 57 -48 82 -62 93 -69 83 -52 -6 10 -4 12 8 7 10 -3 17
-3 18 1 5 35 5 62 0 70 -15 21 -122 92 -132 87 -5 -4 -16 -1 -24 5 -12 10 -15
10 -15 0 0 -8 -3 -10 -6 -7 -4 3 -15 2 -25 -4 -15 -7 -17 -6 -13 6 4 8 5 15 3
15 -2 0 -35 -24 -74 -53z"/>
<path d="M2224 1683 c-20 -15 -23 -41 -5 -57 36 -33 99 3 75 42 -12 18 -52 27
-70 15z"/>
<path d="M2323 1636 c2 -29 5 -31 42 -34 40 -3 41 -2 41 31 0 33 -1 34 -42 34
-41 0 -42 -1 -41 -31z"/>
<path d="M2471 1549 c-28 -26 -26 -47 5 -61 23 -11 29 -10 45 11 34 41 -11 86
-50 50z"/>
<path d="M1321 1550 c-4 -3 -10 -13 -14 -22 -10 -29 41 -65 57 -40 6 10 62 8
89 -3 9 -4 25 -4 35 0 9 5 25 7 35 6 10 -1 24 2 31 9 10 8 15 7 20 -6 5 -13
14 -14 49 -9 55 9 73 25 57 54 -9 18 -18 21 -57 17 -25 -2 -49 -9 -53 -16 -6
-9 -9 -9 -12 1 -4 11 -31 14 -117 14 -62 0 -116 -2 -120 -5z"/>
<path d="M1998 1553 c-27 -2 -48 -7 -49 -11 -8 -56 -6 -62 22 -62 52 0 76 16
77 49 0 17 0 30 -1 29 -1 -1 -23 -3 -49 -5z"/>
<path d="M2217 1542 c-34 -37 7 -73 57 -50 21 9 26 18 24 37 -2 21 -9 27 -34
29 -20 2 -36 -3 -47 -16z"/>
<path d="M2339 1553 c-12 -3 -17 -15 -17 -37 0 -29 3 -32 33 -34 19 -2 37 3
41 10 13 21 13 58 1 59 -7 0 -19 2 -27 3 -8 1 -22 1 -31 -1z"/>
<path d="M2590 1540 c-23 -42 30 -81 60 -45 7 8 10 25 6 40 -8 31 -50 35 -66
5z"/>
<path d="M2714 1546 c-15 -40 21 -80 54 -60 37 24 21 74 -25 74 -13 0 -26 -6
-29 -14z"/>
<path d="M3749 1533 c-16 -43 31 -74 61 -38 11 14 6 54 -8 56 -4 0 -15 2 -25
4 -12 2 -21 -5 -28 -22z"/>
</g>
</svg>
